<svg xmlns="http://www.w3.org/2000/svg" version="1.1" xmlns:xlink="http://www.w3.org/1999/xlink" viewBox="0 0 200 200" width="200" height="200"><rect width="200" height="200" fill="url('#gradient')"></rect><defs><linearGradient id="gradient" gradientTransform="rotate(92 0.5 0.5)"><stop offset="0%" stop-color="#641017"></stop><stop offset="100%" stop-color="#606060"></stop></linearGradient></defs><g><g fill="#5bab32" transform="matrix(2.8205276891852713,0,0,2.8205276891852713,4.0142390130395,120.87424795549481)" stroke="#367823" stroke-width="0.8"><path d="M6.74-4.46L6.74-14.22L10.16-14.22L10.16-4.46Q10.16-3.11 9.53-2.04Q8.90-0.98 7.77-0.39Q6.64 0.20 5.25 0.20L5.25 0.20Q2.93 0.20 1.64-0.98Q0.35-2.15 0.35-4.30L0.35-4.30L3.79-4.30Q3.79-3.32 4.13-2.88Q4.46-2.44 5.25-2.44L5.25-2.44Q5.97-2.44 6.35-2.97Q6.74-3.51 6.74-4.46L6.74-4.46ZM21.41 0L18.12 0Q17.94-0.32 17.80-0.95L17.80-0.95Q16.89 0.20 15.26 0.20L15.26 0.20Q13.77 0.20 12.72-0.71Q11.68-1.61 11.68-2.98L11.68-2.98Q11.68-4.70 12.95-5.58Q14.22-6.46 16.64-6.46L16.64-6.46L17.66-6.46L17.66-7.01Q17.66-8.47 16.40-8.47L16.40-8.47Q15.22-8.47 15.22-7.31L15.22-7.31L11.93-7.31Q11.93-8.85 13.24-9.80Q14.54-10.76 16.56-10.76Q18.58-10.76 19.76-9.78Q20.93-8.79 20.96-7.07L20.96-7.07L20.96-2.39Q20.98-0.94 21.41-0.17L21.41-0.17L21.41 0ZM16.05-2.15L16.05-2.15Q16.67-2.15 17.08-2.41Q17.48-2.68 17.66-3.01L17.66-3.01L17.66-4.70L16.70-4.70Q14.98-4.70 14.98-3.15L14.98-3.15Q14.98-2.71 15.28-2.43Q15.59-2.15 16.05-2.15ZM22.80-10.57L25.89-10.57L26.00-9.33Q27.12-10.76 29.01-10.76L29.01-10.76Q31.02-10.76 31.72-9.17L31.72-9.17Q32.79-10.76 34.82-10.76L34.82-10.76Q38.04-10.76 38.13-6.88L38.13-6.88L38.13 0L34.82 0L34.82-6.67Q34.82-7.48 34.55-7.85Q34.28-8.22 33.55-8.22L33.55-8.22Q32.58-8.22 32.10-7.35L32.10-7.35L32.11-7.22L32.11 0L28.81 0L28.81-6.65Q28.81-7.48 28.54-7.85Q28.28-8.22 27.54-8.22L27.54-8.22Q26.59-8.22 26.09-7.35L26.09-7.35L26.09 0L22.80 0L22.80-10.57ZM45.12 0.20L45.12 0.20Q42.69 0.20 41.18-1.25Q39.68-2.71 39.68-5.03L39.68-5.03L39.68-5.30Q39.68-6.92 40.28-8.16Q40.88-9.40 42.03-10.08Q43.18-10.76 44.77-10.76L44.77-10.76Q46.99-10.76 48.28-9.38Q49.57-8.00 49.57-5.53L49.57-5.53L49.57-4.25L43.03-4.25Q43.20-3.36 43.80-2.85Q44.39-2.34 45.34-2.34L45.34-2.34Q46.90-2.34 47.78-3.44L47.78-3.44L49.29-1.66Q48.67-0.81 47.54-0.31Q46.42 0.20 45.12 0.20ZM44.75-8.22L44.75-8.22Q43.30-8.22 43.03-6.31L43.03-6.31L46.35-6.31L46.35-6.56Q46.37-7.35 45.95-7.79Q45.53-8.22 44.75-8.22ZM54.37-15L54.37 0L51.06 0L51.06-15L54.37-15ZM61.22 0L56.54 0L56.54-14.22L61.12-14.22Q63.01-14.22 64.51-13.36Q66.02-12.51 66.86-10.95Q67.71-9.39 67.71-7.46L67.71-7.46L67.71-6.81Q67.71-4.85 66.89-3.31Q66.06-1.76 64.57-0.88Q63.07-0.01 61.22 0L61.22 0ZM61.12-11.57L59.97-11.57L59.97-2.64L61.16-2.64Q62.64-2.64 63.43-3.69Q64.22-4.74 64.22-6.81L64.22-6.81L64.22-7.42Q64.22-9.48 63.43-10.53Q62.64-11.57 61.12-11.57L61.12-11.57Z"></path></g></g></svg>